<svg xmlns="http://www.w3.org/2000/svg" xmlns:xlink="http://www.w3.org/1999/xlink" width="500" zoomAndPan="magnify" viewBox="0 0 375 374.999991" height="500" preserveAspectRatio="xMidYMid meet" version="1.2"><defs><clipPath id="a2a9a4d4e5"><path d="M 67 190 L 129 190 L 129 205.035156 L 67 205.035156 Z M 67 190 "/></clipPath><clipPath id="271dccd3f6"><path d="M 66.511719 157.035156 L 128 157.035156 L 128 172 L 66.511719 172 Z M 66.511719 157.035156 "/></clipPath></defs><g id="9c0f077dc4"><g style="fill:#000000;fill-opacity:1;"><g transform="translate(136.684757, 204.296402)"><path style="stroke:none" d="M 2.734375 -47.953125 L 10.28125 -47.953125 L 10.28125 -6.84375 L 22.671875 -6.84375 L 22.671875 0 L 2.734375 0 Z M 2.734375 -47.953125 "/></g></g><g style="fill:#000000;fill-opacity:1;"><g transform="translate(159.912618, 204.296402)"><path style="stroke:none" d="M 2.734375 -47.953125 L 10.28125 -47.953125 L 10.28125 0 L 2.734375 0 Z M 2.734375 -47.953125 "/></g></g><g style="fill:#000000;fill-opacity:1;"><g transform="translate(172.93118, 204.296402)"><path style="stroke:none" d="M 14.109375 -47.953125 C 18.035156 -47.953125 20.878906 -47.039062 22.640625 -45.21875 C 24.398438 -43.394531 25.28125 -40.632812 25.28125 -36.9375 L 25.28125 -35.21875 C 25.28125 -32.75 24.890625 -30.710938 24.109375 -29.109375 C 23.335938 -27.515625 22.109375 -26.332031 20.421875 -25.5625 C 22.472656 -24.78125 23.921875 -23.507812 24.765625 -21.75 C 25.609375 -19.988281 26.03125 -17.832031 26.03125 -15.28125 L 26.03125 -11.375 C 26.03125 -7.675781 25.070312 -4.851562 23.15625 -2.90625 C 21.238281 -0.96875 18.382812 0 14.59375 0 L 2.734375 0 L 2.734375 -47.953125 Z M 10.28125 -21.578125 L 10.28125 -6.84375 L 14.59375 -6.84375 C 15.875 -6.84375 16.84375 -7.1875 17.5 -7.875 C 18.164062 -8.5625 18.5 -9.796875 18.5 -11.578125 L 18.5 -15.765625 C 18.5 -17.992188 18.117188 -19.519531 17.359375 -20.34375 C 16.609375 -21.164062 15.367188 -21.578125 13.640625 -21.578125 Z M 10.28125 -41.109375 L 10.28125 -28.4375 L 13.21875 -28.4375 C 14.632812 -28.4375 15.742188 -28.800781 16.546875 -29.53125 C 17.347656 -30.257812 17.75 -31.582031 17.75 -33.5 L 17.75 -36.171875 C 17.75 -37.910156 17.4375 -39.164062 16.8125 -39.9375 C 16.195312 -40.71875 15.226562 -41.109375 13.90625 -41.109375 Z M 10.28125 -41.109375 "/></g></g><g style="fill:#000000;fill-opacity:1;"><g transform="translate(200.749801, 204.296402)"><path style="stroke:none" d="M 18.5 0 C 18.40625 -0.320312 18.3125 -0.617188 18.21875 -0.890625 C 18.132812 -1.160156 18.054688 -1.5 17.984375 -1.90625 C 17.910156 -2.320312 17.863281 -2.847656 17.84375 -3.484375 C 17.820312 -4.128906 17.8125 -4.929688 17.8125 -5.890625 L 17.8125 -13.421875 C 17.8125 -15.660156 17.421875 -17.238281 16.640625 -18.15625 C 15.867188 -19.070312 14.613281 -19.53125 12.875 -19.53125 L 10.28125 -19.53125 L 10.28125 0 L 2.734375 0 L 2.734375 -47.953125 L 14.109375 -47.953125 C 18.035156 -47.953125 20.878906 -47.039062 22.640625 -45.21875 C 24.398438 -43.394531 25.28125 -40.632812 25.28125 -36.9375 L 25.28125 -33.15625 C 25.28125 -28.226562 23.632812 -24.988281 20.34375 -23.4375 C 22.269531 -22.65625 23.582031 -21.382812 24.28125 -19.625 C 24.988281 -17.863281 25.34375 -15.726562 25.34375 -13.21875 L 25.34375 -5.828125 C 25.34375 -4.640625 25.390625 -3.597656 25.484375 -2.703125 C 25.578125 -1.816406 25.804688 -0.914062 26.171875 0 Z M 10.28125 -41.109375 L 10.28125 -26.375 L 13.21875 -26.375 C 14.632812 -26.375 15.742188 -26.738281 16.546875 -27.46875 C 17.347656 -28.207031 17.75 -29.535156 17.75 -31.453125 L 17.75 -36.171875 C 17.75 -37.910156 17.4375 -39.164062 16.8125 -39.9375 C 16.195312 -40.71875 15.226562 -41.109375 13.90625 -41.109375 Z M 10.28125 -41.109375 "/></g></g><g style="fill:#000000;fill-opacity:1;"><g transform="translate(228.294349, 204.296402)"><path style="stroke:none" d="M 2.734375 -47.953125 L 10.28125 -47.953125 L 10.28125 0 L 2.734375 0 Z M 2.734375 -47.953125 "/></g></g><g style="fill:#000000;fill-opacity:1;"><g transform="translate(241.31291, 204.296402)"><path style="stroke:none" d="M 2.734375 -47.953125 L 10.28125 -47.953125 L 10.28125 -6.84375 L 22.671875 -6.84375 L 22.671875 0 L 2.734375 0 Z M 2.734375 -47.953125 "/></g></g><g style="fill:#000000;fill-opacity:1;"><g transform="translate(264.540771, 204.296402)"><path style="stroke:none" d="M 2.734375 -47.953125 L 10.28125 -47.953125 L 10.28125 -6.84375 L 22.671875 -6.84375 L 22.671875 0 L 2.734375 0 Z M 2.734375 -47.953125 "/></g></g><g style="fill:#000000;fill-opacity:1;"><g transform="translate(287.768632, 204.296402)"><path style="stroke:none" d="M 9.65625 -11.03125 C 9.65625 -9.289062 10.007812 -8.066406 10.71875 -7.359375 C 11.425781 -6.648438 12.375 -6.296875 13.5625 -6.296875 C 14.75 -6.296875 15.695312 -6.648438 16.40625 -7.359375 C 17.113281 -8.066406 17.46875 -9.289062 17.46875 -11.03125 L 17.46875 -36.9375 C 17.46875 -38.664062 17.113281 -39.882812 16.40625 -40.59375 C 15.695312 -41.300781 14.75 -41.65625 13.5625 -41.65625 C 12.375 -41.65625 11.425781 -41.300781 10.71875 -40.59375 C 10.007812 -39.882812 9.65625 -38.664062 9.65625 -36.9375 Z M 2.125 -36.453125 C 2.125 -40.335938 3.101562 -43.316406 5.0625 -45.390625 C 7.03125 -47.472656 9.863281 -48.515625 13.5625 -48.515625 C 17.257812 -48.515625 20.09375 -47.472656 22.0625 -45.390625 C 24.03125 -43.316406 25.015625 -40.335938 25.015625 -36.453125 L 25.015625 -11.515625 C 25.015625 -7.628906 24.03125 -4.644531 22.0625 -2.5625 C 20.09375 -0.488281 17.257812 0.546875 13.5625 0.546875 C 9.863281 0.546875 7.03125 -0.488281 5.0625 -2.5625 C 3.101562 -4.644531 2.125 -7.628906 2.125 -11.515625 Z M 2.125 -36.453125 "/></g></g><g clip-rule="nonzero" clip-path="url(#a2a9a4d4e5)"><path style=" stroke:none;fill-rule:nonzero;fill:#000000;fill-opacity:1;" d="M 126.933594 190.925781 L 74.855469 190.925781 C 74.390625 190.917969 73.925781 190.957031 73.46875 191.039062 C 73.007812 191.121094 72.558594 191.25 72.125 191.417969 C 71.691406 191.589844 71.273438 191.800781 70.878906 192.050781 C 70.484375 192.300781 70.117188 192.585938 69.777344 192.90625 C 69.4375 193.226562 69.132812 193.578125 68.863281 193.957031 C 68.589844 194.339844 68.355469 194.742188 68.164062 195.167969 C 67.96875 195.59375 67.816406 196.03125 67.707031 196.488281 C 67.597656 196.941406 67.535156 197.402344 67.515625 197.871094 C 67.503906 198.339844 67.542969 198.808594 67.625 199.269531 C 67.710938 199.734375 67.839844 200.183594 68.011719 200.621094 C 68.1875 201.058594 68.402344 201.472656 68.65625 201.867188 C 68.914062 202.261719 69.207031 202.628906 69.535156 202.964844 C 69.863281 203.300781 70.222656 203.597656 70.613281 203.863281 C 71 204.128906 71.414062 204.351562 71.84375 204.53125 C 72.277344 204.714844 72.726562 204.851562 73.1875 204.945312 C 73.648438 205.039062 74.113281 205.085938 74.582031 205.085938 L 126.9375 205.085938 C 127.113281 205.085938 127.285156 205.050781 127.449219 204.980469 C 127.617188 204.914062 127.761719 204.816406 127.886719 204.691406 C 128.015625 204.5625 128.113281 204.417969 128.179688 204.253906 C 128.25 204.085938 128.28125 203.914062 128.28125 203.734375 L 128.28125 203.0625 L 74.582031 203.0625 C 74.230469 203.0625 73.878906 203.023438 73.535156 202.953125 C 73.191406 202.878906 72.859375 202.769531 72.535156 202.625 C 72.214844 202.484375 71.910156 202.308594 71.625 202.101562 C 71.339844 201.894531 71.078125 201.660156 70.839844 201.398438 C 70.605469 201.136719 70.398438 200.851562 70.21875 200.546875 C 70.042969 200.242188 69.898438 199.921875 69.789062 199.585938 C 69.675781 199.253906 69.601562 198.910156 69.5625 198.558594 C 69.523438 198.207031 69.523438 197.855469 69.558594 197.503906 C 69.636719 196.871094 69.824219 196.273438 70.121094 195.710938 C 70.417969 195.148438 70.808594 194.65625 71.285156 194.238281 C 71.765625 193.816406 72.300781 193.496094 72.898438 193.273438 C 73.496094 193.050781 74.109375 192.945312 74.746094 192.949219 L 128.28125 192.949219 L 128.28125 192.277344 C 128.28125 192.097656 128.25 191.921875 128.179688 191.757812 C 128.113281 191.59375 128.015625 191.445312 127.886719 191.320312 C 127.761719 191.191406 127.613281 191.09375 127.449219 191.027344 C 127.285156 190.957031 127.113281 190.925781 126.933594 190.925781 Z M 126.933594 190.925781 "/></g><path style=" stroke:none;fill-rule:nonzero;fill:#000000;fill-opacity:1;" d="M 71.558594 163.960938 C 71.527344 164.292969 71.5625 164.617188 71.667969 164.933594 C 71.773438 165.25 71.933594 165.535156 72.160156 165.78125 C 72.382812 166.027344 72.648438 166.222656 72.953125 166.355469 C 73.257812 166.492188 73.574219 166.558594 73.910156 166.558594 L 124.238281 166.558594 L 124.238281 161.839844 L 74.070312 161.839844 C 73.769531 161.832031 73.472656 161.878906 73.1875 161.980469 C 72.902344 162.078125 72.644531 162.226562 72.414062 162.421875 C 72.179688 162.617188 71.992188 162.847656 71.84375 163.113281 C 71.699219 163.378906 71.601562 163.660156 71.558594 163.960938 Z M 71.558594 163.960938 "/><g clip-rule="nonzero" clip-path="url(#271dccd3f6)"><path style=" stroke:none;fill-rule:nonzero;fill:#000000;fill-opacity:1;" d="M 80.332031 171.277344 L 126.257812 171.277344 C 126.4375 171.277344 126.609375 171.246094 126.773438 171.175781 C 126.941406 171.109375 127.085938 171.011719 127.210938 170.882812 C 127.335938 170.757812 127.433594 170.613281 127.503906 170.445312 C 127.570312 170.28125 127.605469 170.109375 127.605469 169.929688 L 127.605469 169.257812 L 73.910156 169.257812 C 73.554688 169.257812 73.207031 169.21875 72.863281 169.144531 C 72.519531 169.074219 72.183594 168.964844 71.863281 168.820312 C 71.539062 168.675781 71.234375 168.503906 70.949219 168.296875 C 70.664062 168.089844 70.402344 167.855469 70.167969 167.59375 C 69.929688 167.332031 69.722656 167.046875 69.546875 166.742188 C 69.367188 166.4375 69.226562 166.117188 69.113281 165.78125 C 69.003906 165.445312 68.929688 165.105469 68.890625 164.753906 C 68.851562 164.402344 68.851562 164.050781 68.882812 163.699219 C 68.960938 163.066406 69.148438 162.46875 69.449219 161.90625 C 69.746094 161.34375 70.132812 160.851562 70.613281 160.429688 C 71.089844 160.011719 71.628906 159.691406 72.226562 159.46875 C 72.820312 159.246094 73.4375 159.136719 74.074219 159.144531 L 127.609375 159.144531 L 127.609375 158.46875 C 127.609375 158.292969 127.574219 158.117188 127.507812 157.953125 C 127.4375 157.789062 127.339844 157.644531 127.214844 157.515625 C 127.089844 157.390625 126.941406 157.292969 126.777344 157.222656 C 126.613281 157.15625 126.441406 157.121094 126.261719 157.121094 L 74.183594 157.121094 C 73.71875 157.113281 73.253906 157.152344 72.792969 157.234375 C 72.335938 157.320312 71.886719 157.445312 71.453125 157.617188 C 71.015625 157.785156 70.601562 157.996094 70.207031 158.246094 C 69.8125 158.496094 69.445312 158.78125 69.105469 159.101562 C 68.765625 159.421875 68.460938 159.773438 68.1875 160.152344 C 67.917969 160.535156 67.683594 160.9375 67.488281 161.363281 C 67.296875 161.789062 67.144531 162.230469 67.035156 162.683594 C 66.925781 163.136719 66.859375 163.597656 66.839844 164.066406 C 66.832031 164.539062 66.871094 165.003906 66.953125 165.464844 C 67.039062 165.929688 67.167969 166.378906 67.339844 166.816406 C 67.511719 167.253906 67.726562 167.671875 67.984375 168.0625 C 68.242188 168.457031 68.535156 168.824219 68.863281 169.160156 C 69.191406 169.496094 69.550781 169.796875 69.941406 170.058594 C 70.328125 170.324219 70.738281 170.546875 71.171875 170.730469 C 71.605469 170.910156 72.050781 171.046875 72.511719 171.140625 C 72.972656 171.234375 73.4375 171.28125 73.910156 171.28125 Z M 80.332031 171.277344 "/></g><path style=" stroke:none;fill-rule:nonzero;fill:#000000;fill-opacity:1;" d="M 72.234375 197.765625 C 72.199219 198.097656 72.234375 198.421875 72.339844 198.738281 C 72.445312 199.054688 72.609375 199.335938 72.832031 199.585938 C 73.054688 199.832031 73.320312 200.023438 73.625 200.160156 C 73.929688 200.296875 74.25 200.363281 74.582031 200.363281 L 124.917969 200.363281 L 124.917969 195.644531 L 74.742188 195.644531 C 74.441406 195.636719 74.148438 195.683594 73.859375 195.78125 C 73.574219 195.882812 73.316406 196.03125 73.085938 196.226562 C 72.855469 196.421875 72.664062 196.652344 72.519531 196.917969 C 72.371094 197.183594 72.277344 197.464844 72.234375 197.765625 Z M 72.234375 197.765625 "/><path style=" stroke:none;fill-rule:nonzero;fill:#000000;fill-opacity:1;" d="M 132.40625 173.976562 L 80.332031 173.976562 C 79.867188 173.96875 79.402344 174.007812 78.941406 174.089844 C 78.484375 174.171875 78.035156 174.300781 77.601562 174.46875 C 77.164062 174.636719 76.75 174.847656 76.355469 175.097656 C 75.960938 175.347656 75.59375 175.632812 75.253906 175.953125 C 74.914062 176.277344 74.609375 176.625 74.335938 177.007812 C 74.0625 177.386719 73.832031 177.789062 73.636719 178.214844 C 73.441406 178.640625 73.289062 179.082031 73.179688 179.535156 C 73.070312 179.992188 73.007812 180.453125 72.988281 180.917969 C 72.976562 181.390625 73.015625 181.855469 73.101562 182.320312 C 73.183594 182.78125 73.3125 183.230469 73.484375 183.667969 C 73.660156 184.105469 73.875 184.523438 74.132812 184.917969 C 74.386719 185.3125 74.679688 185.675781 75.007812 186.011719 C 75.339844 186.347656 75.695312 186.648438 76.085938 186.910156 C 76.476562 187.175781 76.886719 187.398438 77.320312 187.582031 C 77.753906 187.761719 78.199219 187.902344 78.660156 187.992188 C 79.121094 188.085938 79.585938 188.132812 80.054688 188.132812 L 132.410156 188.132812 C 132.585938 188.132812 132.757812 188.097656 132.925781 188.03125 C 133.089844 187.960938 133.234375 187.863281 133.359375 187.738281 C 133.488281 187.613281 133.585938 187.464844 133.652344 187.300781 C 133.722656 187.136719 133.753906 186.964844 133.753906 186.785156 L 133.753906 186.109375 L 80.054688 186.109375 C 79.703125 186.109375 79.351562 186.074219 79.007812 186 C 78.664062 185.925781 78.328125 185.816406 78.007812 185.675781 C 77.683594 185.53125 77.382812 185.355469 77.097656 185.148438 C 76.808594 184.941406 76.550781 184.707031 76.3125 184.445312 C 76.074219 184.183594 75.867188 183.902344 75.691406 183.597656 C 75.515625 183.292969 75.371094 182.972656 75.257812 182.636719 C 75.148438 182.300781 75.074219 181.957031 75.035156 181.605469 C 74.996094 181.253906 74.996094 180.90625 75.03125 180.554688 C 75.109375 179.921875 75.296875 179.324219 75.59375 178.761719 C 75.890625 178.195312 76.277344 177.703125 76.757812 177.285156 C 77.234375 176.863281 77.773438 176.542969 78.371094 176.324219 C 78.964844 176.101562 79.582031 175.992188 80.21875 175.996094 L 133.753906 175.996094 L 133.753906 175.324219 C 133.753906 175.144531 133.71875 174.972656 133.652344 174.808594 C 133.582031 174.644531 133.484375 174.496094 133.359375 174.371094 C 133.234375 174.242188 133.089844 174.148438 132.921875 174.078125 C 132.757812 174.007812 132.585938 173.976562 132.40625 173.976562 Z M 132.40625 173.976562 "/><path style=" stroke:none;fill-rule:nonzero;fill:#000000;fill-opacity:1;" d="M 77.707031 180.816406 C 77.675781 181.148438 77.710938 181.472656 77.816406 181.789062 C 77.917969 182.105469 78.082031 182.386719 78.304688 182.632812 C 78.53125 182.882812 78.792969 183.074219 79.097656 183.210938 C 79.402344 183.34375 79.722656 183.414062 80.054688 183.414062 L 130.386719 183.414062 L 130.386719 178.695312 L 80.21875 178.695312 C 79.917969 178.6875 79.621094 178.734375 79.335938 178.832031 C 79.050781 178.933594 78.792969 179.082031 78.5625 179.277344 C 78.328125 179.472656 78.140625 179.703125 77.992188 179.96875 C 77.847656 180.230469 77.75 180.515625 77.707031 180.816406 Z M 77.707031 180.816406 "/></g></svg>